<svg xmlns="http://www.w3.org/2000/svg" width="1440" height="331.207" viewBox="0 0 1440 331.207">
  <g id="Group_46" data-name="Group 46" transform="translate(-8626 -1542)">
    <path id="Path_23" data-name="Path 23" d="M0,400V100C101.78,88.077,203.56,76.153,302,81s193.541,26.464,293,25S798.278,79.99,899,72s198.35.574,288,8,171.33,13.713,253,20V400Z" transform="translate(10066 1942) rotate(180)" fill="#fddd94"/>
    <path id="Path_24" data-name="Path 24" d="M0,400V200c104.871,16.517,209.742,33.033,308,23s189.9-46.617,267-50,139.641,26.435,245,31,253.53-16.124,364-21,183.23,6.062,256,17V400Z" transform="translate(10066 1942) rotate(180)" fill="#fcd888"/>
    <path id="Path_25" data-name="Path 25" d="M0,400V300c90.565-11.77,181.129-23.541,281-13s209.048,43.392,301,40,166.679-43.029,257-44,196.23,36.722,299,46,202.38-9.861,302-29V400Z" transform="translate(10066 1942) rotate(180)" fill="#ffcc57"/>
  </g>
</svg>
